<svg width="120" height="120" viewBox="0 0 120 120" fill="none" xmlns="http://www.w3.org/2000/svg">
  <!-- Background Circle for O -->
  <circle cx="90" cy="60" r="30" fill="#1e3a8a" stroke="none"/>
  
  <!-- Inner white circle -->
  <circle cx="90" cy="60" r="22" fill="white"/>
  
  <!-- Brain/Circuit Pattern in Orange -->
  <g transform="translate(90, 60)">
    <!-- Central circuit pattern -->
    <path d="M-8 -8 L8 -8 M0 -8 L0 8 M-8 8 L8 8" stroke="#f97316" stroke-width="2" fill="none"/>
    <path d="M-12 -4 L12 -4 M-12 4 L12 4" stroke="#f97316" stroke-width="1.5" fill="none"/>
    
    <!-- Circuit nodes -->
    <circle cx="-8" cy="-8" r="2" fill="#f97316"/>
    <circle cx="8" cy="-8" r="2" fill="#f97316"/>
    <circle cx="-8" cy="8" r="2" fill="#f97316"/>
    <circle cx="8" cy="8" r="2" fill="#f97316"/>
    <circle cx="0" cy="0" r="2.5" fill="#f97316"/>
    
    <!-- Additional circuit paths -->
    <path d="M-6 -12 L6 -12 M-6 12 L6 12" stroke="#f97316" stroke-width="1" fill="none"/>
    <path d="M-12 0 L-8 0 M8 0 L12 0" stroke="#f97316" stroke-width="1" fill="none"/>
    
    <!-- Small connection nodes -->
    <circle cx="-12" cy="-4" r="1" fill="#f97316"/>
    <circle cx="12" cy="-4" r="1" fill="#f97316"/>
    <circle cx="-12" cy="4" r="1" fill="#f97316"/>
    <circle cx="12" cy="4" r="1" fill="#f97316"/>
  </g>
  
  <!-- Letter I -->
  <rect x="10" y="20" width="8" height="80" fill="#1e3a8a"/>
  <rect x="5" y="20" width="18" height="8" fill="#1e3a8a"/>
  <rect x="5" y="92" width="18" height="8" fill="#1e3a8a"/>
</svg>